<svg xmlns="http://www.w3.org/2000/svg" x="0px" y="0px" width="64" height="64" viewBox="0 0 64 64">
<path fill="#fff4d2" d="M7,51V13c0-3.31,2.69-6,6-6h38c3.31,0,6,2.69,6,6v38c0,3.31-2.69,6-6,6H13C9.69,57,7,54.31,7,51z"></path><path fill="#72caaf" d="M30,32.722c-10,0-9-6-15-9C19,21.722,30,20.722,30,32.722z"></path><path fill="#72caaf" d="M35,34c0-1,0.5-4,5-4c3,0,5.5,0.5,8-2c0.5,2-2.5,9-8,9C36,37,35,35,35,34z"></path><path fill="#8d6c9f" d="M51,58H13c-3.859,0-7-3.141-7-7V13c0-3.859,3.141-7,7-7h38c3.859,0,7,3.141,7,7v38	C58,54.859,54.859,58,51,58z M13,8c-2.757,0-5,2.243-5,5v38c0,2.757,2.243,5,5,5h38c2.757,0,5-2.243,5-5V13c0-2.757-2.243-5-5-5H13z"></path><path fill="#cda1a7" d="M51,57H13c-3.314,0-6-2.686-6-6v-2c0-4.418,3.582-8,8-8h34c4.418,0,8,3.582,8,8v2	C57,54.314,54.314,57,51,57z"></path><path fill="#c4939c" d="M53,57H11c-2.209,0-4-1.791-4-4v0c0-1.657,1.343-3,3-3h44c1.657,0,3,1.343,3,3v0	C57,55.209,55.209,57,53,57z"></path><path fill="#8d6c9f" d="M51,58H13c-3.859,0-7-3.141-7-7v-2c0-4.963,4.037-9,9-9h34c4.963,0,9,4.037,9,9v2	C58,54.859,54.859,58,51,58z M15,42c-3.859,0-7,3.141-7,7v2c0,2.757,2.243,5,5,5h38c2.757,0,5-2.243,5-5v-2c0-3.859-3.141-7-7-7H15z"></path><path fill="#8d6c9f" d="M14.5,52c-0.553,0-1-0.447-1-1v-2c0-0.553,0.447-1,1-1s1,0.447,1,1v2 C15.5,51.553,15.053,52,14.5,52z"></path><path fill="#8d6c9f" d="M19.5,52c-0.553,0-1-0.447-1-1v-2c0-0.553,0.447-1,1-1s1,0.447,1,1v2 C20.5,51.553,20.053,52,19.5,52z"></path><path fill="#8d6c9f" d="M24.5,52c-0.553,0-1-0.447-1-1v-2c0-0.553,0.447-1,1-1s1,0.447,1,1v2 C25.5,51.553,25.053,52,24.5,52z"></path><path fill="#8d6c9f" d="M29.5,52c-0.553,0-1-0.447-1-1v-2c0-0.553,0.447-1,1-1s1,0.447,1,1v2 C30.5,51.553,30.053,52,29.5,52z"></path><path fill="#8d6c9f" d="M34.5,52c-0.553,0-1-0.447-1-1v-2c0-0.553,0.447-1,1-1s1,0.447,1,1v2 C35.5,51.553,35.053,52,34.5,52z"></path><path fill="#8d6c9f" d="M39.5,52c-0.553,0-1-0.447-1-1v-2c0-0.553,0.447-1,1-1s1,0.447,1,1v2 C40.5,51.553,40.053,52,39.5,52z"></path><path fill="#8d6c9f" d="M44.5,52c-0.553,0-1-0.447-1-1v-2c0-0.553,0.447-1,1-1s1,0.447,1,1v2 C45.5,51.553,45.053,52,44.5,52z"></path><path fill="#8d6c9f" d="M49.5,52c-0.553,0-1-0.447-1-1v-2c0-0.553,0.447-1,1-1s1,0.447,1,1v2 C50.5,51.553,50.053,52,49.5,52z"></path><path fill="#8d6c9f" d="M32,45c-0.553,0-1-0.447-1-1v-7.277c0-1.205-0.111-2.438-1.447-3.105	c-0.494-0.247-0.694-0.848-0.447-1.342c0.248-0.494,0.849-0.691,1.342-0.447C33,33.104,33,35.64,33,36.723V44	C33,44.553,32.553,45,32,45z"></path><path fill="#8d6c9f" d="M32,38c-0.553,0-1-0.447-1-1c0-2.626,2.013-4,4-4c0.553,0,1,0.447,1,1s-0.447,1-1,1	c-0.923,0-2,0.523-2,2C33,37.553,32.553,38,32,38z"></path><path fill="#8d6c9f" d="M30,33.723c-6.745,0-8.933-2.656-11.049-5.226c-1.21-1.47-2.353-2.856-4.398-3.88	C14.214,24.447,14,24.102,14,23.723s0.214-0.725,0.553-0.895c2.492-1.244,7.941-2.299,11.961,0.186	C28.561,24.279,31,26.99,31,32.723C31,33.275,30.553,33.723,30,33.723z M17.265,23.948c1.378,1.027,2.347,2.203,3.23,3.277	c1.864,2.264,3.49,4.238,8.476,4.474c-0.196-3.318-1.374-5.665-3.509-6.984C23.014,23.203,19.686,23.299,17.265,23.948z"></path><path fill="#8d6c9f" d="M40,38c-4.746,0-6-2.616-6-4c0-2.307,1.571-5,6-5c0.446,0,0.882,0.011,1.308,0.021	c2.408,0.057,4.153,0.104,5.985-1.729c0.255-0.256,0.626-0.354,0.974-0.257c0.348,0.097,0.616,0.372,0.703,0.722	c0.39,1.558-0.638,4.484-2.338,6.663C44.829,36.729,42.475,38,40,38z M40,31c-3.712,0-4,2.296-4,3c0,0.557,0.719,2,4,2	c2.364,0,4.054-1.528,5.055-2.811c0.799-1.022,1.332-2.099,1.646-2.999c-1.81,0.921-3.651,0.876-5.443,0.83	C40.848,31.011,40.429,31,40,31z"></path><path fill="#8d6c9f" d="M29.5,33c-0.183,0-0.359-0.102-0.447-0.276c-0.927-1.854-3.349-4.295-4.711-4.749	c-0.262-0.088-0.403-0.371-0.316-0.633c0.088-0.262,0.372-0.402,0.633-0.316c1.613,0.538,4.233,3.139,5.289,5.251	c0.123,0.247,0.023,0.547-0.224,0.671C29.651,32.983,29.575,33,29.5,33z"></path><path fill="#8d6c9f" d="M35.501,34.5c-0.17,0-0.336-0.087-0.43-0.244c-0.142-0.236-0.065-0.543,0.172-0.685	c0.11-0.067,2.746-1.618,5.442-0.535c0.257,0.103,0.381,0.394,0.278,0.649s-0.394,0.381-0.649,0.278	c-2.235-0.892-4.535,0.451-4.558,0.466C35.676,34.477,35.588,34.5,35.501,34.5z"></path>
</svg>