<svg xmlns="http://www.w3.org/2000/svg" x="0px" y="0px" width="64" height="64" viewBox="0 0 64 64">
<path fill="#dae2ef" d="M35.361,5.701c2.005-2.346,5.284-4.2,8.177-4.701c0,3.06-1.229,6.338-3.407,8.983 c-2.197,2.651-5.338,4.336-8.248,4.487C31.83,11.06,33.652,7.683,35.361,5.701z"></path><path fill="#ced8ed" d="M43.538 1c0 3.06-1.229 6.338-3.407 8.983-2.197 2.651-5.338 4.336-8.248 4.487C36 9 40 5 43.538 1zM51.665 53.947c-2.689 3.932-5.019 6.946-8.455 7.008-1.759.035-2.924-.468-4.267-1.049-1.478-.639-3.152-1.364-5.75-1.364-2.709 0-4.457.745-5.999 1.403-1.292.55-2.408 1.026-4.002 1.089-3.304.098-6.003-3.352-8.693-7.238-7.377-10.66-7.467-23.161-3.806-29.513 2.476-4.307 6.953-7.027 11.686-7.098.044-.001.086-.001.129-.001 1.972 0 3.966.792 5.731 1.492 1.563.621 2.913 1.157 4.152 1.157 1.132 0 2.473-.529 4.025-1.142 2.168-.855 4.865-1.921 7.571-1.647 1.883.077 6.415.703 9.667 4.72-2.177 1.605-6.182 5.435-6.119 11.842.072 7.954 5.666 11.666 7.917 12.839C54.88 48.08 53.694 50.98 51.665 53.947z"></path><path fill="#c2cde7" d="M44.054,54.3c-1.343,0.443-2.144,1.554-3.464,1.577c-1.352,0.027-2.247-0.36-3.28-0.807 c-1.136-0.492-2.422-1.048-4.419-1.048c-2.082,0-3.425,0.573-4.61,1.078c-0.993,0.423-1.851,0.788-3.076,0.837 c-2.54,0.076-4.614-2.576-6.682-5.563c-1.432-2.07-2.503-4.229-3.26-6.38C14.419,41.599,12.157,40,9.616,40H8.815 c0.791,4.53,2.589,9.323,5.684,13.795c2.691,3.886,5.389,7.336,8.693,7.238c1.594-0.064,2.71-0.539,4.002-1.089 c1.542-0.658,3.29-1.403,5.999-1.403c2.598,0,4.272,0.725,5.75,1.364c1.344,0.581,2.509,1.084,4.267,1.049 c2.112-0.038,3.563-1.443,5.422-2.987C51,56,48,53,44.054,54.3z"></path><path fill="#8d6c9f" d="M55.934 44.636c-.723-.296-7.065-3.117-7.134-10.792 0-.001 0-.001 0-.001-.061-6.054 4.375-9.298 5.805-10.191.224-.147.379-.379.431-.643.051-.263-.005-.536-.156-.757-3.625-5.299-9.166-6.081-11.319-6.168-3.002-.306-5.823.81-8.091 1.703-1.236.487-2.403.948-3.102.948-.798 0-1.974-.467-3.218-.961-1.893-.753-4.053-1.62-6.354-1.562-5.209.078-10.129 3.054-12.837 7.767-5.084 8.819-1.881 22.173 3.715 30.26C15.821 57.34 19.046 62 23.442 62c.079 0 .158-.002.237-.005 1.887-.074 3.226-.645 4.521-1.197 1.419-.604 2.759-1.176 4.932-1.176 2.061 0 3.335.552 4.685 1.135 1.369.593 2.784 1.209 4.898 1.165 4.565-.083 7.396-4.223 9.67-7.549 2.459-3.595 3.701-7.1 4.135-8.483C56.689 45.39 56.423 44.836 55.934 44.636zM50.734 53.244c-2.562 3.747-4.783 6.619-8.057 6.678-1.676.033-2.786-.446-4.066-1-1.408-.609-3.003-1.3-5.479-1.3-2.582 0-4.247.71-5.716 1.337-1.231.524-2.295.978-3.814 1.038-3.149.094-5.72-3.194-8.284-6.897-7.03-10.158-7.116-22.071-3.626-28.124 2.359-4.104 6.626-6.696 11.136-6.764.042-.001.082-.001.123-.001 1.879 0 3.78.755 5.461 1.422 1.49.592 2.776 1.103 3.957 1.103 1.079 0 2.356-.504 3.836-1.088 2.066-.814 4.636-1.831 7.215-1.569 1.794.073 6.113.67 9.212 4.498-2.075 1.529-5.891 5.18-5.831 11.285.068 7.58 5.399 11.117 7.544 12.234C53.798 47.653 52.668 50.417 50.734 53.244zM31.834 15.348c.211.017.423.024.637.024 3.114 0 6.507-1.712 8.804-4.485 0-.001.001-.001.002-.002 2.395-2.907 3.605-6.644 3.237-9.994-.058-.522-.525-.939-1.035-.89-3.177.129-6.982 2.076-9.251 4.731-1.926 2.234-3.807 5.969-3.309 9.749C30.982 14.95 31.363 15.312 31.834 15.348zM35.747 6.035c1.675-1.961 4.416-3.51 6.834-3.929 0 2.558-1.027 5.297-2.847 7.507-1.836 2.216-4.461 3.624-6.893 3.75C32.796 10.514 34.318 7.691 35.747 6.035z"></path><path fill="#8d6c9f" d="M45.911 23.372c-.472-.285-1.088-.132-1.373.341-.428.71-.812 1.454-1.144 2.212-.221.507.01 1.096.517 1.316.13.058.266.084.399.084.385 0 .753-.224.917-.6.296-.679.641-1.345 1.023-1.981C46.536 24.271 46.384 23.657 45.911 23.372zM43.815 33.5c0-1.001.088-2.002.262-2.976.097-.544-.265-1.063-.809-1.16-.547-.103-1.063.265-1.16.809-.194 1.089-.293 2.209-.293 3.327 0 3.167.804 6.312 2.326 9.096.182.333.524.521.878.521.162 0 .327-.039.479-.123.485-.265.663-.872.398-1.356C44.534 39.146 43.815 36.333 43.815 33.5zM24.473 52.975c-.476-.277-1.089-.113-1.367.363l-1.003 1.73c-.277.479-.114 1.09.364 1.367.158.092.33.135.5.135.345 0 .681-.179.866-.498l1.003-1.73C25.114 53.863 24.951 53.252 24.473 52.975zM19.958 50.582l-1.417 1.411c-.392.39-.393 1.023-.003 1.415.195.195.452.294.708.294.255 0 .511-.097.706-.291L21.369 52c.392-.39.393-1.023.003-1.415C20.982 50.194 20.349 50.192 19.958 50.582zM18.995 47.474c-.276-.479-.887-.643-1.366-.369l-1.734.997c-.479.275-.644.887-.369 1.365.185.322.522.502.868.502.169 0 .34-.043.498-.133l1.734-.997C19.104 48.563 19.27 47.952 18.995 47.474zM17.503 43.854c-.142-.533-.689-.849-1.223-.71l-1.933.514c-.534.143-.852.689-.709 1.224.119.447.523.743.966.743.085 0 .171-.011.257-.033l1.933-.514C17.327 44.935 17.645 44.388 17.503 43.854zM15.998 40.968c0 0 .001 0 .001 0 .552 0 1-.446 1-.998.001-.553-.446-1.001-.998-1.002l-2-.004c0 0-.001 0-.001 0-.552 0-1 .446-1 .998-.001.553.446 1.001.998 1.002L15.998 40.968z"></path>
</svg>